<svg xmlns="http://www.w3.org/2000/svg" viewBox="0 0 24 24" fill="#FF9900">
  <path d="M6.763 10.036c0 .296.032.535.088.71.064.176.144.368.256.576.04.063.056.127.056.183 0 .08-.048.16-.152.24l-.503.335c-.072.048-.144.071-.2.071-.08 0-.16-.04-.239-.112-.112-.12-.207-.248-.279-.383-.072-.135-.144-.287-.224-.463-.56.66-1.263.99-2.127.99-.607 0-1.087-.17-1.448-.517-.36-.344-.543-.808-.543-1.384 0-.615.216-1.11.655-1.496.44-.383 1.04-.58 1.807-.58.248 0 .503.016.775.056.271.04.55.096.83.16v-.543c0-.566-.117-.96-.36-1.192-.24-.23-.65-.35-1.23-.35-.264 0-.535.032-.812.088-.279.056-.55.127-.822.216-.12.048-.207.08-.263.096-.056.016-.096.024-.12.024-.104 0-.152-.08-.152-.24v-.375c0-.12.016-.208.056-.263.04-.056.12-.112.207-.16.264-.135.58-.248.95-.336.367-.096.758-.136 1.183-.136.902 0 1.567.206 1.998.615.424.41.64 1.046.64 1.913v2.52zm-2.895 1.086c.24 0 .487-.04.758-.127.27-.088.51-.224.734-.415.135-.12.231-.25.295-.39.064-.144.104-.310.104-.5v-.24c-.199-.048-.415-.08-.646-.104-.23-.024-.464-.032-.693-.032-.495 0-.863.096-1.118.287-.255.19-.38.46-.38.822 0 .335.08.574.255.734.168.16.406.24.69.24zm5.446.566c-.135 0-.224-.024-.272-.08-.048-.048-.088-.144-.127-.27L7.39 5.853c-.04-.135-.064-.224-.064-.27 0-.104.048-.16.152-.16h.615c.144 0 .24.024.287.08.048.048.096.144.127.27l1.607 6.367 1.488-6.367c.024-.135.072-.224.12-.27.047-.048.15-.08.295-.08h.502c.144 0 .248.024.295.08.048.048.096.144.12.27l1.504 6.447 1.655-6.447c.032-.135.08-.224.128-.27.047-.048.15-.08.286-.08h.583c.104 0 .16.048.16.16 0 .032-.008.064-.016.104-.008.04-.024.096-.048.16L15.575 11.34c-.04.135-.088.224-.127.27-.048.048-.144.08-.279.08h-.54c-.144 0-.248-.024-.295-.08-.048-.056-.096-.144-.12-.27L12.72 5.01l-1.48 6.25c-.023.135-.071.224-.12.27-.047.048-.15.08-.294.08h-.54zm8.806.104c-.336 0-.671-.04-.99-.12-.32-.08-.568-.176-.742-.288-.104-.064-.176-.136-.207-.2-.032-.064-.048-.135-.048-.2v-.383c0-.16.056-.24.16-.24.048 0 .096.008.144.024.048.016.12.048.2.08.263.112.543.2.838.248.296.048.583.08.87.08.463 0 .822-.08 1.07-.248.255-.16.38-.39.38-.678 0-.2-.064-.375-.19-.51-.128-.135-.328-.256-.598-.36l-.862-.27c-.431-.135-.75-.336-.958-.598-.207-.264-.31-.558-.31-.886 0-.255.056-.486.16-.694.104-.207.25-.39.438-.543.19-.16.41-.28.67-.36.26-.08.543-.12.85-.12.15 0 .302.008.454.032.15.024.295.048.43.08.135.032.26.072.375.112.112.04.2.08.27.127.104.064.18.128.214.2.04.07.056.15.056.23v.36c0 .16-.056.24-.16.24-.064 0-.16-.024-.27-.08-.27-.12-.574-.184-.918-.184-.415 0-.734.064-.958.2-.224.135-.336.34-.336.614 0 .2.072.375.207.51.135.136.358.27.67.39l.838.27c.423.135.734.32.926.56.2.24.295.518.295.838 0 .264-.056.504-.16.726-.104.224-.256.415-.44.583-.19.16-.42.287-.694.374-.28.096-.59.144-.926.144z"/>
</svg> 