<svg xmlns="http://www.w3.org/2000/svg" viewBox="0 0 24 24" fill="#326CE5">
  <path d="M12.001 2.002c-.733 0-1.326.593-1.326 1.326v.734c-2.656.367-5.04 1.735-6.756 3.88l-.519-.519c-.518-.518-1.359-.518-1.877 0-.518.518-.518 1.359 0 1.877l.519.519c-2.145 1.716-3.513 4.1-3.88 6.756h-.734c-.733 0-1.326.593-1.326 1.326s.593 1.326 1.326 1.326h.734c.367 2.656 1.735 5.04 3.88 6.756l-.519.519c-.518.518-.518 1.359 0 1.877.259.259.598.388.938.388s.679-.129.938-.388l.519-.519c1.716 2.145 4.1 3.513 6.756 3.88v.734c0 .733.593 1.326 1.326 1.326s1.326-.593 1.326-1.326v-.734c2.656-.367 5.04-1.735 6.756-3.88l.519.519c.259.259.598.388.938.388s.679-.129.938-.388c.518-.518.518-1.359 0-1.877l-.519-.519c2.145-1.716 3.513-4.1 3.88-6.756h.734c.733 0 1.326-.593 1.326-1.326s-.593-1.326-1.326-1.326h-.734c-.367-2.656-1.735-5.04-3.88-6.756l.519-.519c.518-.518.518-1.359 0-1.877-.518-.518-1.359-.518-1.877 0l-.519.519c-1.716-2.145-4.1-3.513-6.756-3.88v-.734c0-.733-.593-1.326-1.326-1.326z"/>
  <circle cx="12" cy="12" r="4" fill="white"/>
</svg> 