<svg xmlns="http://www.w3.org/2000/svg" viewBox="0 0 24 24" fill="#F6851B">
  <path d="M22.56 1.85L13.5 8.42l1.68-3.96 7.38-2.61z"/>
  <path d="M1.44 1.85l8.94 6.66-1.6-4.05L1.44 1.85z" fill="#E2761B"/>
  <path d="M19.26 17.05l-2.42 3.71 5.18 1.43 1.49-5.03-4.25-.11z" fill="#E4761B"/>
  <path d="M.53 17.16l1.48 5.03 5.18-1.43-2.42-3.71-3.24.11z" fill="#E4761B"/>
  <path d="M6.93 10.54L5.58 12.6l5.13.23-.17-5.52-3.61 3.23z" fill="#E4761B"/>
  <path d="M17.07 10.54l-3.68-3.32-.12 5.61 5.13-.23-1.33-2.06z" fill="#E4761B"/>
  <path d="M7.19 20.76l3.09-1.51-2.67-2.08-.42 3.59z" fill="#E4761B"/>
  <path d="M13.72 19.25l3.09 1.51-.42-3.59-2.67 2.08z" fill="#E4761B"/>
</svg> 