<svg xmlns="http://www.w3.org/2000/svg" viewBox="0 0 24 24" fill="#412991">
  <path d="M22.282 9.821a5.985 5.985 0 0 0-.516-4.91 6.046 6.046 0 0 0-6.51-2.9A6.065 6.065 0 0 0 4.981 4.18a5.985 5.985 0 0 0-3.998 2.9 6.046 6.046 0 0 0 .743 7.097 5.98 5.98 0 0 0 .51 4.911 6.078 6.078 0 0 0 6.525 2.9 5.973 5.973 0 0 0 4.233.956 6.066 6.066 0 0 0 5.669-4.097 5.985 5.985 0 0 0 3.998-2.9 6.046 6.046 0 0 0-.743-7.097zM6.06 7.25c.806-.926 2.159-1.04 3.085-.235.927.806 1.04 2.159.235 3.085-.806.927-2.159 1.04-3.085.235-.927-.806-1.04-2.159-.235-3.085zm5.94 9.5c-3.038 0-5.5-2.462-5.5-5.5s2.462-5.5 5.5-5.5 5.5 2.462 5.5 5.5-2.462 5.5-5.5 5.5z"/>
</svg> 