<svg xmlns="http://www.w3.org/2000/svg" viewBox="0 0 24 24" fill="#336791">
  <path d="M23.111 5.441c-.777-2.827-2.982-4.015-5.782-4.015-1.001 0-2.056.235-3.111.705-.777-.47-1.666-.705-2.556-.705-1.445 0-2.777.47-3.778 1.293C6.333 1.426 4.777.72 3.111.72 1.445.72.111 2.013.111 3.72c0 .94.445 1.88 1.222 2.585.111.235.111.47.111.705 0 3.055 1.334 5.64 3.667 7.345.333.235.666.47 1.111.588.333.118.666.235 1.111.235.555 0 1.111-.117 1.555-.352.445.235.889.352 1.445.352.555 0 1.111-.117 1.555-.352.445.235.889.352 1.445.352.555 0 1.111-.117 1.555-.352.445.235 1 .352 1.555.352.778 0 1.445-.235 2.111-.588 2.334-1.705 3.667-4.29 3.667-7.345 0-.235 0-.47.111-.705.777-.705 1.222-1.645 1.222-2.585 0-1.707-1.334-3-3-3z"/>
</svg> 